<svg version="1.1" xmlns="http://www.w3.org/2000/svg" xmlns:xlink="http://www.w3.org/1999/xlink" width="31.39817" height="39.64975" viewBox="0,0,31.39817,39.64975"><g transform="translate(-221.78899,-159.41943)"><g data-paper-data="{&quot;isPaintingLayer&quot;:true}" fill-rule="evenodd" stroke-miterlimit="10" stroke-dasharray="" stroke-dashoffset="0" style="mix-blend-mode: normal"><g><path d="M234.29931,187.78777c0.29983,0.14991 0.93697,0.48722 0.03748,1.7615c-0.89949,1.27427 -3.48551,1.53662 -3.78534,1.53662c-1.16184,0.03748 -2.58603,0.03748 -4.16013,-0.48722c-4.57239,-1.49915 -4.60987,-6.40885 -3.14821,-7.1959c1.42419,-0.78705 2.06132,2.24872 4.12265,4.08517c0.89949,0.82453 1.98637,1.12436 2.88585,1.31175c1.27427,0.22487 3.71038,-1.19932 4.04769,-1.01192z" fill="#ffab19" stroke="#001026" stroke-width="1.2" stroke-linecap="round" stroke-linejoin="round"/><path d="M225.00461,184.752c0.59966,1.01192 1.7615,2.43611 1.7615,2.43611c0,0 -1.38671,-0.33731 -2.17376,0.29983c-0.63714,0.48722 -0.48722,1.31175 -0.41226,1.5741c-0.48722,-0.48722 -1.08688,-1.16184 -1.46167,-2.47359c-0.37479,-1.31175 0,-2.88585 0.74957,-3.11073c0.74957,-0.14991 0.93697,0.41226 1.53662,1.27427z" fill="#ffffff" stroke="none" stroke-width="1" stroke-linecap="butt" stroke-linejoin="miter"/></g><path d="M236.17324,191.68554c-0.67462,0.44974 -2.99829,2.0988 -5.9591,3.03577l-0.14991,0.03748c-0.14991,0.03748 -0.22487,0.22487 -0.14991,0.37479c0.63714,0.89949 1.79897,2.69846 -0.26235,3.3356c-1.98637,0.63714 -5.69675,-4.64735 -4.12265,-6.03406c0.71209,-0.5247 1.34923,-0.26235 1.68654,-0.11244c0.18739,0.07496 0.37479,0.07496 0.56218,0.03748c0.44974,-0.14991 1.27427,-0.44974 1.91141,-0.78705c1.61158,-0.82453 1.98637,-1.16184 2.73594,-1.72402c0.74957,-0.56218 2.47359,-1.94889 3.8603,-0.74957c1.19932,1.01192 0.5247,2.13628 -0.11244,2.58603z" fill="#ffab19" stroke="#001026" stroke-width="1.2" stroke-linecap="round" stroke-linejoin="round"/><path d="M242.13234,183.88999c0.18739,0.14991 2.47359,2.84838 3.22316,2.17376c0.89949,-0.78705 2.13628,-2.32368 3.48551,-1.08688c1.34923,1.23679 -1.19932,3.3356 -2.2862,3.89778c-2.58603,1.16184 -4.68483,-1.0494 -5.13457,-1.64906c-0.44974,-0.59966 -1.23679,-1.61158 -1.23679,-2.58603c0.03748,-1.0494 1.31175,-1.31175 1.94889,-0.74957z" fill="#ffab19" stroke="#001026" stroke-width="1.2" stroke-linecap="round" stroke-linejoin="round"/><path d="M242.16982,192.62251c0.78705,0.71209 2.51107,2.17376 2.51107,2.17376c0,0 5.35944,-0.93697 5.35944,1.7615c0,1.61158 -2.69846,1.98637 -6.33389,1.64906c-0.22487,-0.03748 -0.44974,-0.11244 -0.63714,-0.26235c-0.82453,-0.71209 -3.18568,-2.8109 -4.68483,-4.27256c-2.21124,-2.17376 -4.04769,-3.59795 -4.04769,-3.59795c-3.18568,-3.11073 -0.59966,-4.42248 0.41226,-6.22145c0.93697,-1.53662 1.34923,-1.23679 3.59795,-0.78705c1.27427,0.18739 2.02385,0.29983 2.84838,0.26235c1.23679,-0.03748 1.01192,1.7615 0.67462,2.69846c0,0 -0.5247,1.38671 -1.01192,2.0988c-0.59966,0.86201 -1.0494,1.42419 -1.49915,1.7615z" fill="#ffab19" stroke="#001026" stroke-width="1.2" stroke-linecap="round" stroke-linejoin="round"/><path d="M233.36234,186.77584c0.82453,1.0494 2.0988,2.36115 0.48722,3.44803c-2.21124,1.23679 -4.04769,-2.51107 -4.42248,-3.82282c-0.33731,-1.16184 0.63714,-1.91141 1.46167,-2.54855c1.61158,-1.16184 2.96081,-2.21124 4.45996,-1.64906c1.87393,0.67462 0.5247,2.17376 -0.41226,2.84838c-0.56218,0.41226 -1.12436,0.86201 -1.53662,1.12436c-0.11244,0.18739 -0.14991,0.41226 -0.03748,0.59966z" fill="#ffab19" stroke="#001026" stroke-width="1.2" stroke-linecap="round" stroke-linejoin="round"/><path d="M244.30841,159.91866c0.11244,-0.07496 0.29983,0.14674 0.33731,0.29666l0.48318,6.03665c0,0 2.39863,1.7615 3.11073,2.99829c1.19932,2.06132 1.23679,3.74786 1.23679,3.74786c0,0 2.66098,0.78705 3.11073,2.92333c0.44974,2.13628 -1.19932,6.18397 -8.2453,7.57068c-7.04598,1.38671 -12.70526,-0.5247 -15.36624,-4.79726c-2.66098,-4.27256 1.53662,-9.36966 1.31175,-9.06983l-1.46253,-9.10356c-0.03748,-0.14991 -0.03431,-0.20094 0.11561,-0.12598l5.39461,5.29429c0,0 1.68654,-0.63714 3.44803,-0.71209c1.0494,-0.07496 1.94889,0 2.8109,0.14991z" fill="#ffab19" stroke="#001026" stroke-width="1.2" stroke-linecap="butt" stroke-linejoin="miter"/><path d="M249.36399,173.14803c0,0 2.58603,0.67462 3.03577,2.8109c0.44974,2.13628 -1.34923,5.99658 -8.32026,7.34581c-9.06983,1.87393 -13.37987,-3.52299 -10.8688,-7.49573c2.51107,-4.01021 6.82111,-0.59966 9.96932,-0.82453c2.69846,-0.18739 2.99829,-2.54855 6.18397,-1.83645z" fill="#ffffff" stroke="none" stroke-width="1" stroke-linecap="butt" stroke-linejoin="miter"/><path d="M237.55822,177.15825c0,-0.14991 0.14991,-0.26235 0.29983,-0.22487c0.71209,0.26235 2.73594,0.86201 4.98466,1.01192c2.02385,0.11244 3.22316,0 3.78534,-0.11244c0.18739,-0.03748 0.33731,0.14991 0.26235,0.33731c-0.33731,1.01192 -1.7615,3.82282 -5.69675,3.59795c-3.41056,-0.37479 -3.74786,-2.77342 -3.63543,-4.60987z" fill="#ffffff" stroke="#001026" stroke-width="1.2" stroke-linecap="round" stroke-linejoin="round"/><path d="M243.0301,174.01004c0.78705,0 1.61158,0.07496 1.64906,0.33731c0.03748,0.5247 -0.5247,1.5741 -1.12436,1.61158c-0.67462,0.07496 -2.24872,-0.86201 -2.24872,-1.46167c-0.03748,-0.44974 0.97444,-0.48722 1.72402,-0.48722z" fill="#001026" stroke="#001026" stroke-width="1.2" stroke-linecap="round" stroke-linejoin="round"/><path d="M247.45258,169.62504c1.08688,1.68654 1.12436,3.59795 0.07496,4.27256c-1.0494,0.67462 -2.77342,-0.11244 -3.89778,-1.79897c-1.08688,-1.68654 -1.12436,-3.59795 -0.07496,-4.27256c1.0494,-0.71209 2.8109,0.11244 3.89778,1.79897z" fill="#ffffff" stroke="#001026" stroke-width="1.2" stroke-linecap="round" stroke-linejoin="round"/><path d="M247.30267,171.76132c0,0.41226 -0.29983,0.74957 -0.67462,0.74957c-0.37479,0 -0.67462,-0.33731 -0.67462,-0.74957c0,-0.41226 0.29983,-0.74957 0.67462,-0.74957c0.37479,0 0.67462,0.33731 0.67462,0.74957" fill="#001026" stroke="none" stroke-width="1" stroke-linecap="butt" stroke-linejoin="miter"/><path d="M238.15788,170.67444c1.12436,1.64906 1.0494,3.67291 0.03748,4.385c-1.23679,0.71209 -2.88585,0.18739 -4.01021,-1.46167c-1.16184,-1.64906 -1.23679,-3.78534 -0.07496,-4.60987c1.16184,-0.86201 2.92333,0.03748 4.04769,1.68654z" fill="#ffffff" stroke="#001026" stroke-width="1.2" stroke-linecap="round" stroke-linejoin="round"/><path d="M235.84516,170.57613c0,0.41226 -0.29983,0.74957 -0.67462,0.74957c-0.37479,0 -0.67462,-0.33731 -0.67462,-0.74957c0,-0.41226 0.29983,-0.74957 0.67462,-0.74957c0.37479,0.03748 0.67462,0.33731 0.67462,0.74957" fill="#001026" stroke="none" stroke-width="1" stroke-linecap="butt" stroke-linejoin="miter"/></g></g></svg>